<?xml version="1.0" encoding="UTF-8"?>
<svg width="390px" height="361px" viewBox="0 0 390 361" version="1.1" xmlns="http://www.w3.org/2000/svg" xmlns:xlink="http://www.w3.org/1999/xlink">
    <title>attendance-svgrepo-com</title>
    <g id="Page-1" stroke="none" stroke-width="1" fill="none" fill-rule="evenodd">
        <g id="iPhone-14" transform="translate(0, -185)" fill="#D72822" fill-rule="nonzero">
            <g id="attendance-svgrepo-com" transform="translate(0, 185)">
                <path d="M8.71404609,194.613927 C2.90468216,194.613927 0,188.804556 0,182.995186 C0,168.471758 5.80936393,136.520218 26.1421383,101.663992 C29.0468204,95.8546212 34.8561844,95.8546212 40.6655487,98.7593064 C46.474913,101.663992 49.3795948,110.378048 43.5702304,113.282734 C26.1421383,148.13896 20.3327739,174.281129 20.3327743,185.899871 C20.3327743,191.709242 14.5234104,194.613927 8.71404609,194.613927 Z M49.3795948,98.7593064 C46.4749126,98.7593064 43.5702308,98.7593064 43.5702304,95.8546208 C37.7608665,92.9499352 37.7608665,84.2358788 40.6655487,81.3311936 C60.998323,55.1890244 87.1404613,34.856226 113.2826,20.3327984 C119.091963,17.4281128 124.901328,20.3327984 127.80601,26.1421692 C130.710692,31.95154 127.80601,37.7609112 121.996646,40.6655968 C98.7591895,52.2843388 78.4264152,69.7124516 58.0936409,92.9499352 C58.0936409,95.8546208 55.1889587,98.7593064 49.3795948,98.7593064 Z M153.948148,29.0468548 C148.138784,29.0468548 145.234102,26.1421692 142.32942,20.3327984 C142.32942,14.5234276 145.234103,8.7140564 151.043466,5.8093708 C168.471559,4.26325641e-14 188.804333,4.26325641e-14 209.137107,4.26325641e-14 C217.851153,2.9046856 220.755836,8.7140564 220.755836,14.5234272 C220.755836,20.332798 214.946472,26.1421692 209.137107,26.1421692 C191.709015,23.2374836 174.280923,23.2374836 153.948148,29.0468548 C156.85283,29.0468548 156.85283,29.0468548 153.948148,29.0468548 L153.948148,29.0468548 Z M293.372887,49.3796532 C290.468205,49.3796532 290.468205,49.3796532 287.563523,46.4749676 C270.13543,34.8562256 249.802656,29.0468548 229.469882,23.2374836 C226.5652,26.1421692 220.755836,20.332798 223.660518,14.5234272 C223.660518,8.7140564 229.469882,5.8093708 235.279246,5.8093708 C258.516702,11.6187416 278.849476,17.4281128 299.182251,31.95154 C304.991615,34.8562256 304.991615,40.6655964 302.086933,46.4749676 C302.086933,49.3796532 296.277569,49.3796532 293.372887,49.3796532 L293.372887,49.3796532 Z M380.513348,223.660782 C374.703984,223.660782 368.89462,217.851412 368.89462,212.04204 C365.989938,148.13896 345.657163,98.7593064 310.800979,66.807766 C304.991615,63.9030804 304.991615,55.189024 310.800979,52.2843384 C313.705661,46.4749676 322.419707,46.4749676 325.324389,52.2843384 C363.085256,87.1405644 386.322713,142.329588 389.227394,212.04204 C392.132076,217.851411 386.322712,223.660782 380.513348,223.660782 Z" id="Shape"></path>
                <path d="M313.705661,348.562258 L310.800979,348.562258 C304.991615,345.657572 302.086933,339.848202 304.991615,334.038831 C304.991615,334.038831 310.800979,316.610718 319.515025,281.754492 C328.229071,246.898266 322.419707,200.423298 322.419707,200.423298 C322.419707,151.043645 293.372887,104.568677 246.897974,84.2358788 C241.08861,81.3311932 238.183928,75.5218224 241.08861,69.7124516 C243.993292,63.9030808 249.802656,60.9983952 255.61202,63.9030804 C307.896297,87.1405644 342.752481,139.424903 342.752482,197.518613 C342.752482,197.518613 348.561846,246.898266 339.847799,284.659178 C331.133753,322.420089 322.419707,339.848202 322.419707,339.848202 C319.515025,345.657572 316.610343,348.562258 313.705661,348.562258 Z M119.091964,95.8546208 C116.187282,95.8546208 113.2826,92.9499352 110.377918,90.04525 C107.473236,87.1405644 110.377918,81.3311936 113.2826,78.426508 C145.234102,55.189024 182.994969,46.4749676 220.755836,55.189024 C226.5652,55.189024 229.469882,60.9983948 229.469882,66.807766 C229.469882,72.6171372 223.660518,75.5218224 217.851153,75.5218224 C185.899651,69.7124516 153.948148,75.5218224 127.80601,95.8546208 L119.091964,95.8546208 Z M11.6187279,261.421694 C5.80936393,261.421694 2.90468177,258.517008 0,252.707637 C0,246.898266 2.90468216,241.088895 8.71404609,241.088895 C8.71404609,241.088895 20.3327743,238.18421 31.9515022,226.565468 C40.6655483,217.851411 49.3795944,203.327984 52.2842765,197.518613 C52.2842765,165.567072 63.9030048,133.615532 84.2357791,107.473363 C87.1404613,101.663992 95.8545074,98.7593064 98.7591895,104.568677 C104.568553,107.473363 104.568553,113.282734 101.663872,119.092105 C84.2357795,142.329589 72.6170513,168.471758 72.6170509,197.518613 L72.6170509,200.423298 C72.6170509,203.327984 63.9030048,229.470153 46.4749126,241.088895 C29.0468204,255.612323 14.52341,261.421694 14.52341,261.421694 L11.6187279,261.421694 L11.6187279,261.421694 Z" id="Shape"></path>
                <path d="M34.8561844,299.182605 C31.9515022,299.182605 29.0468204,296.277919 26.1421383,293.373234 C23.2374561,287.563863 23.2374561,281.754492 29.0468204,278.849806 C29.0468204,278.849806 66.807687,252.707637 78.4264152,243.993581 C81.3310974,241.088895 90.0451435,226.565468 92.9498252,212.04204 C92.9498252,188.804556 107.473236,148.13896 121.996646,130.710847 C121.996646,130.710847 127.80601,121.99679 142.32942,113.282734 C153.948149,107.473363 168.471559,101.663992 182.994969,101.663992 C188.804333,98.7593064 194.613697,101.663992 194.613697,107.473363 C194.613697,113.282734 191.709015,119.092105 185.899651,119.092105 C174.280923,119.092105 165.566877,121.99679 156.85283,127.806161 C145.234102,136.520218 139.424738,142.329589 139.424738,142.329589 C127.80601,156.853016 113.2826,194.613928 113.2826,214.946726 L113.2826,217.851411 C110.377917,226.565468 101.663871,252.707637 90.0451435,264.326379 C81.3310974,270.13575 43.5702308,296.27792 40.6655487,299.182605 L34.8561844,299.182605 Z M264.326066,159.757702 C261.421384,159.757702 258.516703,159.757702 255.61202,156.853016 C246.897974,142.329588 232.374563,130.710847 214.946471,124.901476 C209.137107,121.99679 206.232425,116.187419 209.137107,110.378048 C209.137107,104.568678 217.851153,101.663992 223.660518,104.568677 C243.993292,113.282734 264.326066,127.806161 275.944794,142.329589 C278.849476,148.13896 278.849476,153.948331 273.040113,156.853016 C270.13543,159.757702 267.230749,159.757702 264.326066,159.757702 Z M273.040113,270.13575 C273.040113,270.13575 270.13543,270.13575 273.040113,270.13575 C264.326066,267.231064 261.421384,261.421694 261.421384,255.612322 C264.326066,246.898266 264.326066,241.088895 267.230748,238.18421 C270.13543,226.565468 270.13543,200.423298 270.13543,200.423298 C270.13543,194.613928 270.13543,185.899871 267.230748,180.0905 C267.230748,174.281129 270.13543,168.471758 275.944794,165.567072 C281.754158,162.662387 287.563523,168.471758 290.468205,174.281129 C293.372887,182.995185 293.372887,191.709242 293.372887,200.423298 C293.372887,200.423298 290.468205,229.470153 290.468205,241.088895 C290.468205,243.993581 287.563523,249.802952 287.563523,258.517008 C281.754159,264.326379 278.849476,270.13575 273.040113,270.13575 L273.040113,270.13575 Z" id="Shape"></path>
                <path d="M249.802656,354.371629 L246.897974,354.371629 C241.08861,351.466944 238.183928,345.657573 241.08861,339.848202 C241.08861,339.848202 249.802656,307.896661 258.516702,278.849806 C258.516702,273.040436 267.230748,270.13575 273.040113,270.13575 C278.849477,270.13575 281.754159,275.945121 281.754159,284.659178 C275.944795,313.706032 264.326066,345.657573 264.326066,345.657573 C258.516703,351.466944 255.61202,354.371629 249.802656,354.371629 Z" id="Path"></path>
                <path d="M203.327743,357.276314 C194.613697,354.371629 191.709015,348.562258 191.709015,342.752887 L223.660518,212.04204 C229.469882,194.613928 217.851154,177.185814 200.423061,171.376444 C182.994969,168.471758 162.662195,180.0905 159.757513,197.518613 L130.710692,281.754492 L72.6170509,328.22946 C66.807687,334.03883 58.0936405,334.03883 55.1889587,328.22946 C52.2842765,322.420089 52.2842765,316.610718 58.0936409,313.706032 L113.2826,270.13575 L139.424738,194.613927 C139.424738,180.0905 151.043466,165.567072 162.662195,159.757702 C174.280923,151.043645 191.709015,148.13896 206.232425,153.94833 C235.279246,159.757702 255.61202,188.804556 246.897974,220.756097 L214.946471,351.466944 C214.946471,354.371629 209.137107,357.276314 203.327743,357.276314 Z" id="Path"></path>
                <path d="M139.424738,360.181 L133.615374,360.181 C127.80601,357.276314 127.80601,351.466944 130.710692,345.657573 L162.662195,287.563863 L180.090287,206.232669 C180.090287,200.423298 185.899651,197.518613 191.709015,197.518613 C197.518379,197.518613 200.423061,203.327984 200.423061,209.137355 L182.994969,296.277919 L148.138784,357.276314 C148.138784,357.276314 142.32942,360.181 139.424738,360.181 L139.424738,360.181 Z" id="Path"></path>
            </g>
        </g>
    </g>
</svg>