<?xml version="1.0" encoding="UTF-8"?>
<svg width="30px" height="20px" viewBox="0 0 30 20" version="1.1" xmlns="http://www.w3.org/2000/svg" xmlns:xlink="http://www.w3.org/1999/xlink">
    <title>grade-a-plus-svgrepo-com</title>
    <g id="Page-1" stroke="none" stroke-width="1" fill="none" fill-rule="evenodd">
        <g id="iPhone-14" transform="translate(-66, -187)" fill="#7A93FF" fill-rule="nonzero">
            <g id="grade-a-plus-svgrepo-com" transform="translate(66, 187)">
                <path d="M19.576601,20 L14.7001509,20 L13.4234174,16.0000123 L6.11323221,16.0000123 L4.84981582,20 L0,20 L7.22154686,0 L12.5190746,0 L19.576601,20 Z M12.2309238,12.0000246 L10.1474047,5.37053499 C9.98485024,4.86756831 9.87250991,4.2678962 9.81044478,3.57145713 L9.69963164,3.57145713 C9.66413967,4.15777996 9.54740102,4.73813559 9.3494157,5.31252403 L7.22594518,12.0000246 L12.2309238,12.0000246 Z M18.8769632,8.31168432 L22.5040471,8.31168432 L22.5040471,4.65908567 L26.3729161,4.65908567 L26.3729161,8.31168432 L30,8.31168432 L30,12.2078306 L26.3729161,12.2078306 L26.3729161,15.8604292 L22.5040471,15.8604292 L22.5040471,12.2078306 L18.8769632,12.2078306 L18.8769632,8.31168432 Z" id="Shape"></path>
            </g>
        </g>
    </g>
</svg>