<?xml version="1.0" encoding="UTF-8"?>
<svg width="30px" height="33px" viewBox="0 0 30 33" version="1.1" xmlns="http://www.w3.org/2000/svg" xmlns:xlink="http://www.w3.org/1999/xlink">
    <title>schedule-calendar-svgrepo-com</title>
    <g id="Page-1" stroke="none" stroke-width="1" fill="none" fill-rule="evenodd">
        <g id="iPhone-14" transform="translate(-298, -180)" fill="#BD7AFF" fill-rule="nonzero">
            <g id="schedule-calendar-svgrepo-com" transform="translate(298, 180)">
                <rect id="Rectangle" x="6" y="14" width="3" height="3"></rect>
                <rect id="Rectangle" x="21" y="14" width="3" height="3"></rect>
                <rect id="Rectangle" x="16" y="14" width="3" height="3"></rect>
                <rect id="Rectangle" x="6" y="19" width="3" height="3"></rect>
                <rect id="Rectangle" x="16" y="19" width="3" height="3"></rect>
                <rect id="Rectangle" x="11" y="19" width="3" height="3"></rect>
                <rect id="Rectangle" x="21" y="25" width="3" height="3"></rect>
                <rect id="Rectangle" x="16" y="25" width="3" height="3"></rect>
                <rect id="Rectangle" x="11" y="25" width="3" height="3"></rect>
                <path d="M26.8423025,4 L24.1688241,4 L24.1688241,6.51760571 C24.1688241,7.45699567 23.3808535,8.22097191 22.4124154,8.22097191 L18.9216316,8.22097191 C17.9531935,8.22097191 17.1652875,7.45699567 17.1652875,6.51760571 L17.1652875,4 L12.8300603,4 L12.8300603,6.49393374 C12.8300603,7.44639723 12.0334314,8.22097191 11.0542027,8.22097191 L7.60225202,8.22097191 C6.62302334,8.22097191 5.82639448,7.44639723 5.82639448,6.49393374 L5.82639448,4 L3.15291604,4 C1.41440553,4 0,5.37665498 0,7.06872464 L0,29.9312754 C0,31.6232816 1.41440553,33 3.15291604,33 L26.8423025,33 C28.5834622,33 30,31.623345 30,29.9312754 L30,7.06872464 C30,5.37671844 28.5834622,4 26.8423025,4 Z M27.7397942,29.8716829 C27.7397942,30.4149324 27.3681977,30.7797853 26.8150999,30.7797853 L3.18490008,30.7797853 C2.63180226,30.7797853 2.26020582,30.4149324 2.26020582,29.8716829 L2.26020582,11.8087663 L27.7397942,11.8087663 L27.7397942,29.8716829 Z" id="Shape"></path>
                <path d="M7.4700758,6 L10.5300961,6 C10.7892052,6 11,5.78618046 11,5.5233106 L11,1.19950833 C11,0.538090082 10.4687146,0 9.81558322,0 L8.1845314,0 C7.53145731,0 7,0.538031549 7,1.19950833 L7,5.5233106 C7.00005731,5.78618046 7.21085209,6 7.4700758,6 Z" id="Path"></path>
                <path d="M19.4517488,6 L22.5481366,6 C22.7973378,6 23,5.79437502 23,5.54192397 L23,1.18107056 C23,0.529895519 22.476838,0 21.8336032,0 L20.1662822,0 C19.523162,0 19,0.529895519 19,1.18107056 L19,5.54192397 C18.9999427,5.79437502 19.2026622,6 19.4517488,6 Z" id="Path"></path>
            </g>
        </g>
    </g>
</svg>