<!DOCTYPE svg PUBLIC "-//W3C//DTD SVG 1.1//EN" "http://www.w3.org/Graphics/SVG/1.1/DTD/svg11.dtd">
<!-- Uploaded to: SVG Repo, www.svgrepo.com, Transformed by: SVG Repo Mixer Tools -->
<svg version="1.1" id="Uploaded to svgrepo.com" xmlns="http://www.w3.org/2000/svg" xmlns:xlink="http://www.w3.org/1999/xlink" width="256px" height="256px" viewBox="0 0 32 32" xml:space="preserve" fill="#000000">
<g id="SVGRepo_bgCarrier" stroke-width="0"/>
<g id="SVGRepo_tracerCarrier" stroke-linecap="round" stroke-linejoin="round" stroke="#CCCCCC" stroke-width="0.704"/>
<g id="SVGRepo_iconCarrier"> <style type="text/css"> .linesandangles_een{fill:#111918;} </style> <path class="linesandangles_een" d="M28,24V6H4v18H2v2h28v-2H28z M25,24v-2h-5v2H6V8h20v16H25z M8,11h2v8H8V11z M18,11h2v8h-2V11z M15,14h2v2h-2v2h-2v-2h-2v-2h2v-2h2V14z M21,13h3v2h-3V13z M21,16h3v2h-3V16z"/> </g>
</svg>