<?xml version="1.0" encoding="UTF-8"?>
<svg width="23px" height="33px" viewBox="0 0 23 33" version="1.1" xmlns="http://www.w3.org/2000/svg" xmlns:xlink="http://www.w3.org/1999/xlink">
    <title>activity-svgrepo-com</title>
    <g id="Page-1" stroke="none" stroke-width="1" fill="none" fill-rule="evenodd">
        <g id="iPhone-14" transform="translate(-66, -292)" fill="#68DA2C" fill-rule="nonzero">
            <g id="activity-svgrepo-com" transform="translate(66, 292)">
                <path d="M20.5261628,5.27835119 C21.8896735,5.28072983 22.9950975,6.35485206 23,7.68213793 L23,30.5962133 C22.9950975,31.9234991 21.8896735,32.9976214 20.5261628,33 L2.47383721,33 C1.11032652,32.9976214 0.00490253304,31.9234991 0,30.5962133 L0,7.68213793 C0.00490253304,6.35485206 1.11032652,5.28072983 2.47383721,5.27835119 L3.39874031,5.27835119 L3.39874031,7.68213793 L2.47606589,7.68213793 L2.47160853,7.68647689 L2.47160853,30.5918743 L2.47606589,30.5962133 L20.5239341,30.5962133 L20.5283915,30.5918743 L20.5283915,7.68647689 L20.5239341,7.68213793 L19.6012597,7.68213793 L19.6012597,5.27835119 L20.5283915,5.27835119 L20.5261628,5.27835119 Z M18.3420543,14.1211623 L4.4127907,14.1211623 L4.4127907,16.5249491 L18.3420543,16.5249491 L18.3420543,14.1211623 Z M18.3420543,19.1912432 L4.4127907,19.1912432 L4.4127907,21.5950299 L18.3420543,21.5950299 L18.3420543,19.1912432 Z M18.3420543,24.261324 L4.4127907,24.261324 L4.4127907,26.6651108 L18.3420543,26.6651108 L18.3420543,24.261324 Z M17.1318798,4.87699691 L17.1318798,7.58885017 C17.1318798,8.15833396 16.658278,8.6203275 16.0732558,8.6215239 L6.92674419,8.6215239 C6.34259083,8.62033053 5.86934608,8.15965639 5.86812016,7.59101966 L5.86812016,4.87916639 C5.86812016,4.30968261 6.34172195,3.84768906 6.92674419,3.84649267 L8.48013566,3.84649267 L8.48013566,1.03050424 C8.48136159,0.461867505 8.95460633,0.0011933654 9.53875969,0 L13.4612403,0 C14.0453937,0.0011933654 14.5186384,0.461867505 14.5198643,1.03050424 L14.5198643,3.85083164 L16.0732558,3.85083164 C16.6565425,3.85201947 17.1294303,4.31137707 17.1318798,4.87916639 L17.1318798,4.87699691 Z M12.7257752,2.76609033 C12.7257752,2.10230295 12.1729857,1.56419696 11.4910853,1.56419696 C10.8091849,1.56419696 10.2563953,2.10230295 10.2563953,2.76609033 C10.2563953,3.42987771 10.8091849,3.9679837 11.4910853,3.9679837 C12.1729857,3.9679837 12.7257752,3.42987771 12.7257752,2.76609033 L12.7257752,2.76609033 Z" id="Shape"></path>
            </g>
        </g>
    </g>
</svg>